<svg xmlns="http://www.w3.org/2000/svg" viewBox="0 0 1500 1500"><g id="Layer_2" data-name="Layer 2"><path d="M1125,405.52A566,566,0,0,0,1039.43,360a3.83,3.83,0,0,1-2.32-3.51V150.88A3.86,3.86,0,0,1,1041,147h17a10.3,10.3,0,0,0,10.3-10.3V125.64a10.3,10.3,0,0,0-10.3-10.3H888.26A10.3,10.3,0,0,0,878,125.64v11.08A10.31,10.31,0,0,0,888.26,147h18.17a3.86,3.86,0,0,1,3.87,3.86v164a3.82,3.82,0,0,1-4.59,3.76,794.23,794.23,0,0,0-306.81-1,3.81,3.81,0,0,1-4.56-3.75v-163A3.86,3.86,0,0,1,598.2,147h17a10.3,10.3,0,0,0,10.3-10.3V125.64a10.3,10.3,0,0,0-10.3-10.3H445.48a10.3,10.3,0,0,0-10.3,10.3v11.08a10.3,10.3,0,0,0,10.3,10.3h18.18a3.86,3.86,0,0,1,3.87,3.86V354.55a3.81,3.81,0,0,1-2.36,3.52A569.18,569.18,0,0,0,375,405.52C264.71,477.42,204,576,204,683.15s60.71,205.74,171,277.63a568.36,568.36,0,0,0,90.21,47.45,3.83,3.83,0,0,1,2.36,3.53v337.36a3.86,3.86,0,0,1-3.87,3.86H445.48a10.3,10.3,0,0,0-10.3,10.3v11.08a10.3,10.3,0,0,0,10.3,10.3H615.17a10.3,10.3,0,0,0,10.3-10.3v-11.08a10.3,10.3,0,0,0-10.3-10.3h-17a3.86,3.86,0,0,1-3.86-3.86V1052.39a3.81,3.81,0,0,1,4.56-3.75,794.48,794.48,0,0,0,306.81-1,3.81,3.81,0,0,1,4.59,3.75v297.7a3.86,3.86,0,0,1-3.87,3.86H888.26a10.31,10.31,0,0,0-10.31,10.3v11.08a10.31,10.31,0,0,0,10.31,10.3h169.68a10.3,10.3,0,0,0,10.3-10.3v-11.08a10.3,10.3,0,0,0-10.3-10.3h-17a3.86,3.86,0,0,1-3.86-3.86V1009.8a3.84,3.84,0,0,1,2.32-3.51A565.15,565.15,0,0,0,1125,960.78c110.25-71.89,171-170.49,171-277.63S1235.29,477.42,1125,405.52ZM750,412.8a512.13,512.13,0,0,1,157.62,24.6,3.89,3.89,0,0,1,2.68,3.71V617a3.87,3.87,0,0,1-3.87,3.87H598.2a3.86,3.86,0,0,1-3.86-3.87V439.58a3.89,3.89,0,0,1,2.72-3.73A513,513,0,0,1,750,412.8ZM355.11,683.15c0-63.19,40-128,106.17-178.39a3.91,3.91,0,0,1,6.25,3.11V858.44a3.91,3.91,0,0,1-6.25,3.11C395.15,811.2,355.11,746.35,355.11,683.15ZM750,953.51a513,513,0,0,1-152.94-23,3.9,3.9,0,0,1-2.72-3.73V749.28a3.86,3.86,0,0,1,3.86-3.86H906.43a3.86,3.86,0,0,1,3.87,3.86V925.2a3.9,3.9,0,0,1-2.68,3.71A512.13,512.13,0,0,1,750,953.51Zm287.11-98.71V511.51a3.91,3.91,0,0,1,6.29-3.07c63.31,49.81,101.49,113,101.49,174.71s-38.18,124.91-101.49,174.72A3.91,3.91,0,0,1,1037.11,854.8Z"/></g></svg>